<?xml version="1.0" standalone="no"?>
<!DOCTYPE svg PUBLIC "-//W3C//DTD SVG 20010904//EN"
 "http://www.w3.org/TR/2001/REC-SVG-20010904/DTD/svg10.dtd">
<svg version="1.0" xmlns="http://www.w3.org/2000/svg"
 width="400.000000pt" height="400.000000pt" viewBox="0 0 400.000000 400.000000"
 preserveAspectRatio="xMidYMid meet">
<metadata>
Created by potrace 1.14, written by Peter Selinger 2001-2017
</metadata>
<g transform="translate(0.000000,400.000000) scale(0.100000,-0.100000)"
fill="#000000" stroke="none">
<path d="M1515 3173 c-41 -146 -595 -2095 -601 -2115 -5 -17 6 -18 143 -18
l148 0 299 1053 c164 578 307 1080 317 1115 l18 62 -148 0 -148 0 -28 -97z"/>
<path d="M2245 2606 c-305 -59 -505 -312 -505 -638 0 -322 177 -564 468 -639
200 -51 389 -4 525 132 l67 67 0 -87 c0 -176 -30 -272 -110 -352 -128 -129
-387 -128 -534 2 -19 17 -47 55 -61 85 l-26 54 -146 0 -146 0 6 -44 c22 -160
148 -315 318 -390 103 -45 185 -60 329 -61 157 0 211 11 328 66 121 58 209
144 268 263 73 150 74 156 74 887 l0 639 -134 0 c-153 0 -137 11 -156 -108
l-12 -73 -62 59 c-96 93 -202 138 -345 147 -44 2 -105 -1 -146 -9z m329 -284
c83 -37 131 -85 173 -168 32 -66 37 -87 41 -164 7 -152 -48 -277 -152 -350
-195 -133 -455 -64 -554 148 -25 52 -27 68 -27 177 0 108 3 125 26 175 46 98
119 162 222 196 64 21 210 13 271 -14z"/>
</g>
</svg>
