<svg width="118" height="56" viewBox="0 0 118 56" fill="none" xmlns="http://www.w3.org/2000/svg">
<path d="M41.1684 19.132C40.5448 18.2406 39.7645 17.445 38.8274 16.7414C37.8902 16.0379 36.8182 15.4706 35.6076 15.047C34.3969 14.6197 33.0769 14.4061 31.6439 14.4061C29.0731 14.4061 26.754 15.036 24.6792 16.2957C22.6043 17.5555 20.9817 19.2609 19.8075 21.4121C18.6333 23.5632 18.0463 26.0275 18.0463 28.8085C18.0463 31.5896 18.6333 34.0096 19.8075 36.1755C20.9817 38.3451 22.597 40.0579 24.6536 41.3213C26.7102 42.5811 29.0403 43.2109 31.6439 43.2109C33.2228 43.2109 34.6267 42.9789 35.8555 42.5148C37.0844 42.0506 38.1418 41.4392 39.0206 40.6804C39.9031 39.9216 40.6178 39.0781 41.1684 38.1498V41.7081C41.1684 43.6345 40.811 45.2295 40.0963 46.4892C39.3816 47.749 38.4263 48.6846 37.2339 49.2961C36.0415 49.9075 34.6923 50.2132 33.1863 50.2132C31.8663 50.2132 30.663 49.9996 29.58 49.5723C28.497 49.145 27.5963 48.552 26.8816 47.7932C26.1669 47.0344 25.6783 46.1356 25.423 45.0969H18.8704C19.1256 46.9865 19.6872 48.6109 20.5477 49.9628C21.4083 51.3146 22.5095 52.4454 23.8514 53.3553C25.1897 54.2651 26.6665 54.9318 28.2818 55.3591C29.8972 55.7864 31.5855 56 33.3468 56C35.3632 56 37.2448 55.6832 38.9878 55.0533C40.7308 54.4235 42.255 53.4952 43.5568 52.2723C44.8586 51.0494 45.8869 49.5281 46.6381 47.7122C47.3892 45.8962 47.7685 43.8003 47.7685 41.4281V15.0691H41.8211L41.1611 19.1283L41.1684 19.132ZM40.038 33.1992C39.3598 34.4958 38.4044 35.5272 37.1755 36.286C35.9467 37.0448 34.5246 37.4279 32.9092 37.4279C31.2938 37.4279 29.9155 37.0485 28.672 36.286C27.4249 35.5272 26.4586 34.4995 25.7804 33.1992C25.1021 31.9027 24.763 30.4366 24.763 28.8048C24.763 27.1731 25.1021 25.6076 25.7804 24.3294C26.4586 23.0512 27.4213 22.0493 28.672 21.3274C29.9191 20.6054 31.3339 20.2444 32.9092 20.2444C34.4845 20.2444 35.9467 20.6054 37.1755 21.3274C38.4044 22.0493 39.3598 23.0623 40.038 24.3589C40.7162 25.6555 41.0553 27.1399 41.0553 28.8085C41.0553 30.4771 40.7162 31.9063 40.038 33.2029V33.1992ZM13.8164 0L0 49.1045H6.43963L20.2597 0H13.82H13.8164ZM103.052 37.5936L117.587 20.4654V15.0728H95.8396V20.6349H109.988L95.6208 37.7078V43.1004H117.86V37.5936H103.052ZM52.8006 43.1004H59.4079V15.0691H52.8006V43.0968V43.1004ZM86.0744 19.132C85.4508 18.2406 84.6705 17.445 83.7334 16.7414C82.7962 16.0379 81.7242 15.4706 80.5136 15.047C79.3029 14.6197 77.9829 14.4061 76.5499 14.4061C73.9791 14.4061 71.66 15.036 69.5851 16.2957C67.5103 17.5555 65.8877 19.2609 64.7135 21.4121C63.5393 23.5632 62.9523 26.0275 62.9523 28.8085C62.9523 31.5896 63.5393 34.0096 64.7135 36.1755C65.8877 38.3451 67.503 40.0579 69.5596 41.3213C71.6162 42.5811 73.9463 43.2109 76.5499 43.2109C78.1288 43.2109 79.5326 42.9789 80.7615 42.5148C81.9904 42.0506 83.0478 41.4392 83.9266 40.6804C84.8091 39.9216 85.5238 39.0781 86.0744 38.1498V41.7081C86.0744 43.6345 85.717 45.2295 85.0023 46.4892C84.2876 47.749 83.3323 48.6846 82.1399 49.2961C80.9475 49.9075 79.5983 50.2132 78.0923 50.2132C76.7723 50.2132 75.569 49.9996 74.486 49.5723C73.403 49.145 72.5023 48.552 71.7876 47.7932C71.0729 47.0344 70.5843 46.1356 70.329 45.0969H63.7764C64.0316 46.9865 64.5932 48.6109 65.4537 49.9628C66.3143 51.3146 67.4155 52.4454 68.7574 53.3553C70.0957 54.2651 71.5725 54.9318 73.1878 55.3591C74.8032 55.7864 76.4915 56 78.2528 56C80.2692 56 82.1508 55.6832 83.8938 55.0533C85.6368 54.4235 87.161 53.4952 88.4628 52.2723C89.7646 51.0494 90.7929 49.5281 91.5441 47.7122C92.2952 45.8962 92.6744 43.8003 92.6744 41.4281V15.0691H86.7271L86.0671 19.1283L86.0744 19.132ZM84.944 33.1992C84.2657 34.4958 83.3104 35.5272 82.0815 36.286C80.8527 37.0448 79.4306 37.4279 77.8152 37.4279C76.1998 37.4279 74.8214 37.0485 73.578 36.286C72.3309 35.5272 71.3646 34.4995 70.6864 33.1992C70.0081 31.9027 69.669 30.4366 69.669 28.8048C69.669 27.1731 70.0081 25.6076 70.6864 24.3294C71.3646 23.0512 72.3273 22.0493 73.578 21.3274C74.8251 20.6054 76.2399 20.2444 77.8152 20.2444C79.3904 20.2444 80.8527 20.6054 82.0815 21.3274C83.3104 22.0493 84.2657 23.0623 84.944 24.3589C85.6222 25.6555 85.9613 27.1399 85.9613 28.8085C85.9613 30.4771 85.6222 31.9063 84.944 33.2029V33.1992ZM56.1042 2.78103C54.8936 2.78103 53.8945 3.14201 53.1032 3.86397C52.3119 4.58594 51.9181 5.52523 51.9181 6.67079C51.9181 7.81635 52.3119 8.71881 53.1032 9.4776C53.8908 10.2364 54.8936 10.6158 56.1042 10.6158C57.3149 10.6158 58.314 10.2364 59.1053 9.4776C59.8929 8.71881 60.2904 7.77952 60.2904 6.67079C60.2904 5.56206 59.8965 4.58594 59.1053 3.86397C58.314 3.14201 57.3149 2.78103 56.1042 2.78103Z" fill="#40E5FB"/>
</svg>
